<svg xmlns="http://www.w3.org/2000/svg" width="33" height="33" viewBox="0 0 33 33"><g transform="translate(-35 -84)"><g transform="translate(35 84)" fill="#c7112b" stroke="#fff" stroke-width="1"><rect width="33" height="33" rx="16.5" stroke="none"/><rect x="0.5" y="0.5" width="32" height="32" rx="16" fill="none"/></g><g transform="translate(43.693 92.395)"><path d="M14.043,7.19a.726.726,0,0,1-.55.534,1.222,1.222,0,0,1-.232.016H7.7v.168c0,1.774-.007,3.548,0,5.321a.787.787,0,0,1-.554.866H6.877a.73.73,0,0,1-.533-.551,1.144,1.144,0,0,1-.015-.219q0-2.7,0-5.4V7.74H.711A.688.688,0,1,1,.67,6.366c.622,0,1.244,0,1.866,0h3.79V6.2c0-1.774.007-3.548-.005-5.321A.787.787,0,0,1,6.876.01h.275a.724.724,0,0,1,.533.551A1.226,1.226,0,0,1,7.7.793q0,2.695,0,5.39v.181h.167c1.771,0,3.541.007,5.311-.005a.785.785,0,0,1,.864.555V7.19Z" transform="translate(0.323 0.594)" fill="#fff"/></g></g></svg>