<svg xmlns="http://www.w3.org/2000/svg" width="16.969" height="22.95" viewBox="0 0 16.969 22.95"><g transform="translate(0.247 0.247)"><path d="M0,12.525q0-4.454,0-8.908A3.58,3.58,0,0,1,2.912.071,3.838,3.838,0,0,1,3.655.005Q8.238,0,12.821,0a3.584,3.584,0,0,1,3.648,3.64q0,8.978,0,17.955a.784.784,0,0,1-.4.762.771.771,0,0,1-.872-.1q-3.377-2.368-6.755-4.735a.3.3,0,0,0-.421,0Q4.651,19.9,1.268,22.258a.755.755,0,0,1-1.243-.384A1.406,1.406,0,0,1,0,21.55q0-4.512,0-9.024Zm14.969,7.74v-.232q0-8.184,0-16.368A2.088,2.088,0,0,0,12.8,1.5q-4.549,0-9.1,0A2.1,2.1,0,0,0,1.5,3.7q0,8.149,0,16.3v.261c.116-.077.2-.131.28-.187l5.878-4.115a.813.813,0,0,1,1.165,0L13.591,19.3l1.383.965Z" transform="translate(0)" fill="#232837" stroke="#232837" stroke-width="0.5"/></g></svg>