<svg xmlns="http://www.w3.org/2000/svg" width="23.537" height="20.055" viewBox="0 0 23.537 20.055"><g transform="translate(0.15 0.15)"><g transform="translate(0 0)"><path d="M21.425,40.3a6.444,6.444,0,0,0-9.166-.052l-.628.629L11,40.25a6.445,6.445,0,0,0-9.114,9.114l8.055,8.055a2.389,2.389,0,0,0,3.375,0l8-8A6.5,6.5,0,0,0,21.425,40.3Zm-.948,8.27-8,8a1.2,1.2,0,0,1-1.687,0L2.731,48.52a5.251,5.251,0,1,1,7.426-7.426l.629.629-.964.964a.6.6,0,1,0,.844.843L13.1,41.094a5.25,5.25,0,0,1,7.469.043A5.307,5.307,0,0,1,20.477,48.573Z" transform="translate(0 -38.362)" fill="#232837" stroke="#232837" stroke-width="0.3"/></g><g transform="translate(17.232 2.225)"><g transform="translate(0 0)"><path d="M383.63,91.343a4.359,4.359,0,0,0-3.173-3.927.6.6,0,1,0-.32,1.15,3.166,3.166,0,0,1,2.3,2.851.6.6,0,0,0,.595.56h.037A.6.6,0,0,0,383.63,91.343Z" transform="translate(-379.701 -87.395)" fill="#232837" stroke="#232837" stroke-width="0.3"/></g></g></g></svg>