<svg xmlns="http://www.w3.org/2000/svg" width="27.072" height="21.211" viewBox="0 0 27.072 21.211"><g transform="translate(0.1 0.17)"><g transform="translate(0 0)"><path d="M26.88,20.568a.659.659,0,0,1-.682.369c-.5-.017-1,0-1.5,0-.482,0-.611-.149-.711-.6a19.759,19.759,0,0,0-.535-1.982,4.574,4.574,0,0,0-.5-.871.523.523,0,0,0-.5-.245q-6.008.011-12.016,0a2.808,2.808,0,0,1-.341-.011.491.491,0,0,1-.444-.464.485.485,0,0,1,.4-.53,2,2,0,0,1,.391-.025q7.491,0,14.981,0h.387V14.451H12.86c-.77,0-1.541-.032-2.309.006-2.135.107-2.6-.461-2.487-2.436.006-.109,0-.218,0-.342H1.076V16.2H5.338a1.94,1.94,0,0,1,.262.01.513.513,0,0,1,.475.523.5.5,0,0,1-.505.491c-.384.013-.77.019-1.154,0a.513.513,0,0,0-.466.219,5.391,5.391,0,0,0-.941,2.213c-.057.251-.086.508-.13.761a.53.53,0,0,1-.6.51c-.534,0-1.067,0-1.6,0-.484,0-.662-.176-.662-.654V8.45c0-1.409.008-2.818,0-4.226A1.562,1.562,0,0,1,.425,3,1.855,1.855,0,0,1,.7.4,1.879,1.879,0,0,1,3.11.465,1.817,1.817,0,0,1,3.3,2.986c.619.576.362,1.35.439,2.051a3.2,3.2,0,0,1,2.984,1.1C7.24,6.749,7.8,7.32,8.339,7.9a2.484,2.484,0,0,1,.644,1.1c.05.215.151.258.358.257q6.271-.009,12.541-.006a10.015,10.015,0,0,1,2.885.278,2.759,2.759,0,0,1,1.729,1.12,6.847,6.847,0,0,1,.383.889v9.02ZM9.125,10.307c0,.929-.007,1.845.006,2.762a.355.355,0,0,0,.362.343,2.871,2.871,0,0,0,.288.008h15.4c.053,0,.105,0,.157,0,.349-.011.492-.15.5-.49,0-.317,0-.636,0-.953a1.284,1.284,0,0,0-.852-1.266,5.425,5.425,0,0,0-2.145-.409q-6.78-.009-13.56-.007c-.034,0-.069.006-.148.012Zm-6.446.312V4.23c0-.06,0-.121,0-.18-.011-.291-.118-.4-.419-.4-.236,0-.472,0-.707,0-.405,0-.491.087-.491.483v6.491H2.68ZM3.738,6.763a1.751,1.751,0,0,0,.519,1.353c.575.611,1.144,1.228,1.7,1.856a1.93,1.93,0,0,0,1.632.655.437.437,0,0,0,.451-.413,1.889,1.889,0,0,0-.495-1.64Q6.667,7.655,5.826,6.7a2.013,2.013,0,0,0-1.609-.662.444.444,0,0,0-.478.443C3.731,6.574,3.738,6.669,3.738,6.763ZM1.807,19.893l.905-2.637H1.078v2.637h.729Zm24.007,0V17.257H24.182l.9,2.636ZM2.678,1.825A.809.809,0,0,0,1.062,1.8a.81.81,0,0,0,.806.813A.822.822,0,0,0,2.678,1.825Zm2.468,8.8L3.75,9.1v1.523Z" transform="translate(-0.008 0.003)" fill="#c7112b" stroke="#c7112b" stroke-width="0.2"/><path d="M105.177,236.458a.483.483,0,0,1-.5-.482.492.492,0,0,1,.5-.508.5.5,0,0,1,.489.5A.492.492,0,0,1,105.177,236.458Z" transform="translate(-97.328 -219.231)" fill="#c7112b" stroke="#c7112b" stroke-width="0.2"/></g></g></svg>