<svg xmlns="http://www.w3.org/2000/svg" width="107.085" height="21.216" viewBox="0 0 107.085 21.216"><g transform="translate(-1.893 7.124)"><text transform="translate(31.979 9)" font-size="14" font-family="EnnVisions-Regular, EnnVisions"><tspan x="0" y="0">3 bathrooms</tspan></text><g transform="translate(2 -7)"><g transform="translate(0 0)"><path d="M21.665,11.963a1.426,1.426,0,0,1-.943,1.051c-.052.018-.088.116-.107.184q-.539,1.825-1.072,3.651A3.1,3.1,0,0,1,17.572,19a9.029,9.029,0,0,1-1.015.253c.01.022.029.077.055.128.153.3.312.6.46.9a.438.438,0,0,1-.2.645.459.459,0,0,1-.608-.255c-.224-.426-.446-.855-.659-1.287a.276.276,0,0,0-.287-.18q-4.5.008-9,0a.262.262,0,0,0-.275.165c-.22.444-.445.886-.68,1.323a.449.449,0,1,1-.792-.417c.146-.288.3-.575.444-.863.03-.059.055-.122.068-.15a10.3,10.3,0,0,1-1.114-.309A3,3,0,0,1,2.135,16.94c-.373-1.241-.735-2.485-1.1-3.729a.322.322,0,0,0-.216-.243A1.3,1.3,0,0,1-.007,11.6a1.326,1.326,0,0,1,1.159-1.14,2.83,2.83,0,0,1,.38-.019H18.945c0-.071.008-.124.008-.177q0-4.256,0-8.512A.808.808,0,0,0,18.214.88a.729.729,0,0,0-.608.181c-.385.371-.756.755-1.151,1.151.3.2.243.487.175.794-.137.608-.257,1.22-.38,1.831a.463.463,0,0,1-.819.248c-.882-.878-1.765-1.756-2.64-2.641a.431.431,0,0,1,.255-.769c.736-.128,1.471-.257,2.213-.348a1.746,1.746,0,0,1,.6.177c.295-.287.64-.629.992-.965a1.747,1.747,0,0,1,2.165-.3,1.582,1.582,0,0,1,.826,1.268,3.582,3.582,0,0,1,.013.37q0,4.143,0,8.286v.278h.319a1.356,1.356,0,0,1,1.46,1.056.267.267,0,0,0,.031.053v.411ZM1.943,13.082c.023.085.039.151.058.216.269.914.534,1.83.809,2.742a6.135,6.135,0,0,0,.373,1.087,2.205,2.205,0,0,0,2.1,1.21q5.176,0,10.352,0c.282,0,.565.006.847,0a2.194,2.194,0,0,0,2.092-1.462c.259-.737.457-1.494.68-2.243.152-.511.3-1.024.455-1.548H1.943ZM10.81,12.2h9.209a2.16,2.16,0,0,0,.379-.025.408.408,0,0,0,.343-.5c-.046-.228-.217-.351-.518-.355-.352-.005-.7,0-1.057,0H1.51a1.384,1.384,0,0,0-.273.025.422.422,0,0,0,.007.831,2.215,2.215,0,0,0,.379.026q4.593,0,9.187,0Zm4.7-8.287c.079-.376.151-.71.214-1.045a.214.214,0,0,0-.049-.163c-.137-.146-.284-.284-.431-.421a.184.184,0,0,0-.125-.056c-.358.053-.715.113-1.113.177l1.5,1.507Z" transform="translate(0.018 0.008)" fill="#c7112b" stroke="#c7112b" stroke-width="0.2"/><path d="M62.859,271.208c.227,0,.388.141.471.423.195.664.392,1.328.571,2a.621.621,0,0,0,.554.517.456.456,0,0,1,.427.557.492.492,0,0,1-.6.391,1.421,1.421,0,0,1-1.276-1.051c-.223-.719-.42-1.446-.62-2.172a.483.483,0,0,1,.468-.661Z" transform="translate(-59.088 -257.554)" fill="#c7112b" stroke="#c7112b" stroke-width="0.2"/></g></g></g></svg>