<svg xmlns="http://www.w3.org/2000/svg" width="22.522" height="22.523" viewBox="0 0 22.522 22.523"><g transform="translate(0.25 0.25)"><path d="M13.853,22.018a2.382,2.382,0,0,1-1.07-.513,2.08,2.08,0,0,1-.612-.991q-1.154-4.043-2.309-8.087a.344.344,0,0,0-.274-.273q-4.013-1.139-8.023-2.29a2.021,2.021,0,0,1-1.529-1.6A.7.7,0,0,0,0,8.165V7.606c.028-.1.055-.191.084-.286a1.989,1.989,0,0,1,1.4-1.388Q9.895,3.408,18.3.889,19.7.47,21.1.044a.678.678,0,0,1,.737.137.679.679,0,0,1,.139.737Q19.036,10.693,16.1,20.469a2.021,2.021,0,0,1-1.637,1.518.193.193,0,0,0-.055.031h-.559ZM19.088,2.006c-.119.033-.193.051-.266.073L13.743,3.6,1.96,7.136c-.449.135-.668.385-.669.756s.224.616.676.745q3.964,1.132,7.926,2.269a.356.356,0,0,0,.41-.1Q14.6,6.5,18.909,2.2c.05-.05.1-.1.179-.19ZM20,2.977l-.066-.053a1.19,1.19,0,0,1-.131.2q-4.293,4.3-8.595,8.59a.356.356,0,0,0-.1.41q.713,2.465,1.413,4.932c.3,1.039.591,2.079.895,3.116a.727.727,0,0,0,1,.5.87.87,0,0,0,.472-.627q2.289-7.64,4.582-15.278.267-.891.533-1.784Z" transform="translate(0 0.005)" fill="#232837" stroke="#232837" stroke-width="0.5"/></g></svg>